<svg width="20" height="18" viewBox="0 0 20 18" fill="none" xmlns="http://www.w3.org/2000/svg">
<path d="M19.5161 3.61641C19.2058 2.90872 18.7584 2.26742 18.1988 1.72841C17.6389 1.18779 16.9787 0.758162 16.2542 0.462897C15.5029 0.15551 14.6971 -0.00182823 13.8835 1.60272e-05C12.7422 1.60272e-05 11.6286 0.307843 10.6609 0.889294C10.4294 1.02839 10.2095 1.18116 10.0011 1.34761C9.79279 1.18116 9.57286 1.02839 9.34135 0.889294C8.37364 0.307843 7.26009 1.60272e-05 6.11876 1.60272e-05C5.2969 1.60272e-05 4.50052 0.15507 3.74811 0.462897C3.02118 0.759323 2.36601 1.18572 1.80345 1.72841C1.24319 2.26681 0.795642 2.90827 0.486167 3.61641C0.164371 4.35292 0 5.13503 0 5.93994C0 6.69924 0.157426 7.49047 0.469961 8.29538C0.731565 8.96804 1.10661 9.66578 1.58583 10.3704C2.34518 11.4854 3.38928 12.6483 4.68572 13.8272C6.83412 15.7813 8.96167 17.1312 9.05196 17.1859L9.60064 17.5325C9.84372 17.6853 10.1563 17.6853 10.3993 17.5325L10.948 17.1859C11.0383 17.1289 13.1635 15.7813 15.3143 13.8272C16.6107 12.6483 17.6548 11.4854 18.4141 10.3704C18.8934 9.66578 19.2707 8.96804 19.53 8.29538C19.8426 7.49047 20 6.69924 20 5.93994C20.0023 5.13503 19.8379 4.35292 19.5161 3.61641Z" fill="#dea94e"/>
</svg>
